<svg fill="none" height="24" viewBox="0 0 24 24" width="24" xmlns="http://www.w3.org/2000/svg">
    <path
        d="M12.8533 3.39628C12.4634 2.75821 11.5366 2.75821 11.1467 3.39628L7.42978 9.47855C7.02256 10.1449 7.50213 11 8.28306 11H15.7169C16.4979 11 16.9774 10.1449 16.5702 9.47855L12.8533 3.39628Z"
        fill="black" />
    <path
        d="M17.5 22C19.9853 22 22 19.9853 22 17.5C22 15.0147 19.9853 13 17.5 13C15.0147 13 13 15.0147 13 17.5C13 19.9853 15.0147 22 17.5 22Z"
        fill="black" />
    <path
        d="M3 14.5C3 13.9477 3.44772 13.5 4 13.5H10C10.5523 13.5 11 13.9477 11 14.5V20.5C11 21.0523 10.5523 21.5 10 21.5H4C3.44772 21.5 3 21.0523 3 20.5V14.5Z"
        fill="black" />
</svg>
