<svg fill="none" height="100" viewBox="0 0 100 100" width="100" xmlns="http://www.w3.org/2000/svg">
    <g clip-path="url(#clip0_55039_1568)">
        <path d="M28.113 95.309H3.6v3.09h24.514v-3.09Z" fill="#E98331" fill-opacity=".8" />
        <path
            d="M5.122 97.737a.085.085 0 0 1-.085-.086v-1.593c0-.048.037-.085.085-.085.048 0 .086.037.086.085v1.593a.086.086 0 0 1-.086.086Z"
            fill="#FFFFFE" />
        <path
            d="M6.77 97.737a.085.085 0 0 1-.085-.086v-1.593c0-.048.037-.085.085-.085.048 0 .086.037.086.085v1.593a.086.086 0 0 1-.086.086Z"
            fill="#FFFFFE" />
        <path
            d="M8.418 97.737a.085.085 0 0 1-.085-.086v-1.593c0-.048.037-.085.085-.085.048 0 .086.037.086.085v1.593a.086.086 0 0 1-.086.086Z"
            fill="#FFFFFE" />
        <path
            d="M10.066 97.737a.085.085 0 0 1-.086-.086v-1.593c0-.048.038-.085.086-.085.048 0 .086.037.086.085v1.593c0 .047-.039.086-.086.086Z"
            fill="#FFFFFE" />
        <path
            d="M11.713 97.737a.085.085 0 0 1-.086-.086v-1.593c0-.048.038-.085.086-.085.048 0 .086.037.086.085v1.593a.086.086 0 0 1-.086.086Z"
            fill="#FFFFFE" />
        <path
            d="M13.36 97.737a.085.085 0 0 1-.085-.086v-1.593c0-.048.038-.085.086-.085.048 0 .085.037.085.085v1.593a.086.086 0 0 1-.085.086Z"
            fill="#FFFFFE" />
        <path
            d="M15.01 97.737a.085.085 0 0 1-.087-.086v-1.593c0-.048.038-.085.086-.085.048 0 .086.037.086.085v1.593a.086.086 0 0 1-.086.086Z"
            fill="#FFFFFE" />
        <path
            d="M16.657 97.737a.085.085 0 0 1-.086-.086v-1.593c0-.048.038-.085.086-.085.048 0 .086.037.086.085v1.593c0 .047-.04.086-.086.086Z"
            fill="#FFFFFE" />
        <path
            d="M18.303 97.737a.085.085 0 0 1-.086-.086v-1.593c0-.048.038-.085.086-.085.048 0 .086.037.086.085v1.593a.086.086 0 0 1-.086.086Z"
            fill="#FFFFFE" />
        <path
            d="M19.951 97.737a.085.085 0 0 1-.085-.086v-1.593c0-.048.038-.085.085-.085.049 0 .086.037.086.085v1.593a.086.086 0 0 1-.085.086Z"
            fill="#FFFFFE" />
        <path
            d="M21.6 97.737a.085.085 0 0 1-.086-.086v-1.593c0-.048.038-.085.086-.085.048 0 .086.037.086.085v1.593a.086.086 0 0 1-.086.086Z"
            fill="#FFFFFE" />
        <path
            d="M23.247 97.737a.085.085 0 0 1-.085-.086v-1.593c0-.048.038-.085.085-.085.048 0 .086.037.086.085v1.593c0 .047-.039.086-.086.086Z"
            fill="#FFFFFE" />
        <path
            d="M24.896 97.737a.085.085 0 0 1-.086-.086v-1.593c0-.048.038-.085.086-.085.048 0 .086.037.086.085v1.593a.088.088 0 0 1-.086.086Z"
            fill="#FFFFFE" />
        <path
            d="M26.543 97.737a.085.085 0 0 1-.086-.086v-1.593c0-.048.038-.085.086-.085.048 0 .086.037.086.085v1.593a.086.086 0 0 1-.086.086Z"
            fill="#FFFFFE" />
        <path d="M26.888 86.04H2.374v3.09h24.514v-3.09Z" fill="#E98331" fill-opacity=".8" />
        <path
            d="M3.897 88.468a.085.085 0 0 1-.085-.086V86.79c0-.048.037-.086.085-.086.048 0 .086.038.086.086v1.592a.086.086 0 0 1-.086.086Z"
            fill="#FFFFFE" />
        <path
            d="M5.546 88.468a.085.085 0 0 1-.086-.086V86.79c0-.048.038-.086.086-.086.048 0 .086.038.086.086v1.592c0 .047-.04.086-.086.086Z"
            fill="#FFFFFE" />
        <path
            d="M7.192 88.468a.085.085 0 0 1-.086-.086V86.79c0-.048.038-.086.086-.086.048 0 .086.038.086.086v1.592a.086.086 0 0 1-.086.086Z"
            fill="#FFFFFE" />
        <path
            d="M8.84 88.468a.085.085 0 0 1-.086-.086V86.79c0-.048.038-.086.086-.086.048 0 .086.038.086.086v1.592a.086.086 0 0 1-.086.086Z"
            fill="#FFFFFE" />
        <path
            d="M10.488 88.468a.085.085 0 0 1-.086-.086V86.79c0-.048.038-.086.086-.086.048 0 .086.038.086.086v1.592a.086.086 0 0 1-.086.086Z"
            fill="#FFFFFE" />
        <path
            d="M12.136 88.468a.085.085 0 0 1-.086-.086V86.79c0-.048.038-.086.086-.086.048 0 .085.038.085.086v1.592c0 .047-.039.086-.085.086Z"
            fill="#FFFFFE" />
        <path
            d="M13.783 88.468a.085.085 0 0 1-.086-.086V86.79c0-.048.038-.086.086-.086.048 0 .086.038.086.086v1.592a.086.086 0 0 1-.086.086Z"
            fill="#FFFFFE" />
        <path
            d="M15.431 88.468a.085.085 0 0 1-.086-.086V86.79c0-.048.038-.086.086-.086.048 0 .086.038.086.086v1.592a.086.086 0 0 1-.086.086Z"
            fill="#FFFFFE" />
        <path
            d="M17.078 88.468a.085.085 0 0 1-.085-.086V86.79c0-.048.038-.086.085-.086.048 0 .086.038.086.086v1.592a.086.086 0 0 1-.086.086Z"
            fill="#FFFFFE" />
        <path
            d="M18.726 88.468a.085.085 0 0 1-.085-.086V86.79c0-.048.038-.086.085-.086.048 0 .086.038.086.086v1.592c0 .047-.039.086-.086.086Z"
            fill="#FFFFFE" />
        <path
            d="M20.375 88.468a.085.085 0 0 1-.086-.086V86.79c0-.048.038-.086.086-.086.048 0 .086.038.086.086v1.592c0 .047-.04.086-.086.086Z"
            fill="#FFFFFE" />
        <path
            d="M22.021 88.468a.085.085 0 0 1-.085-.086V86.79c0-.048.037-.086.085-.086.048 0 .086.038.086.086v1.592a.086.086 0 0 1-.086.086Z"
            fill="#FFFFFE" />
        <path
            d="M23.67 88.468a.085.085 0 0 1-.086-.086V86.79c0-.048.038-.086.086-.086.048 0 .086.038.086.086v1.592a.086.086 0 0 1-.086.086Z"
            fill="#FFFFFE" />
        <path
            d="M25.318 88.468a.085.085 0 0 1-.086-.086V86.79c0-.048.038-.086.086-.086.048 0 .085.038.085.086v1.592a.086.086 0 0 1-.085.086Z"
            fill="#FFFFFE" />
        <path d="M30.466 89.13H5.952v3.09h24.514v-3.09Z" fill="#E98331" fill-opacity=".8" />
        <path
            d="M7.475 91.557a.085.085 0 0 1-.085-.086V89.88c0-.048.038-.086.085-.086.048 0 .086.038.086.086v1.592a.085.085 0 0 1-.086.086Z"
            fill="#FFFFFE" />
        <path
            d="M9.124 91.557a.085.085 0 0 1-.086-.086V89.88c0-.048.038-.086.086-.086.048 0 .086.038.086.086v1.592a.085.085 0 0 1-.086.086Z"
            fill="#FFFFFE" />
        <path
            d="M10.77 91.557a.085.085 0 0 1-.085-.086V89.88c0-.048.038-.086.086-.086.048 0 .086.038.086.086v1.592c0 .048-.04.086-.086.086Z"
            fill="#FFFFFE" />
        <path
            d="M12.419 91.557a.085.085 0 0 1-.086-.086V89.88c0-.048.038-.086.086-.086.048 0 .086.038.086.086v1.592a.087.087 0 0 1-.086.086Z"
            fill="#FFFFFE" />
        <path
            d="M14.066 91.557a.085.085 0 0 1-.086-.086V89.88c0-.048.038-.086.086-.086.048 0 .086.038.086.086v1.592a.085.085 0 0 1-.086.086Z"
            fill="#FFFFFE" />
        <path
            d="M15.714 91.557a.085.085 0 0 1-.086-.086V89.88c0-.048.038-.086.086-.086.048 0 .085.038.085.086v1.592a.085.085 0 0 1-.085.086Z"
            fill="#FFFFFE" />
        <path
            d="M17.362 91.557a.085.085 0 0 1-.086-.086V89.88c0-.048.038-.086.086-.086.048 0 .086.038.086.086v1.592a.085.085 0 0 1-.086.086Z"
            fill="#FFFFFE" />
        <path
            d="M19.01 91.557a.085.085 0 0 1-.086-.086V89.88c0-.048.038-.086.086-.086.048 0 .086.038.086.086v1.592c0 .048-.04.086-.086.086Z"
            fill="#FFFFFE" />
        <path
            d="M20.657 91.557a.085.085 0 0 1-.086-.086V89.88c0-.048.038-.086.086-.086.048 0 .085.038.085.086v1.592a.085.085 0 0 1-.085.086Z"
            fill="#FFFFFE" />
        <path
            d="M22.305 91.557a.085.085 0 0 1-.086-.086V89.88c0-.048.038-.086.086-.086.047 0 .085.038.085.086v1.592a.085.085 0 0 1-.085.086Z"
            fill="#FFFFFE" />
        <path
            d="M23.953 91.557a.085.085 0 0 1-.086-.086V89.88c0-.048.038-.086.086-.086.048 0 .086.038.086.086v1.592a.085.085 0 0 1-.086.086Z"
            fill="#FFFFFE" />
        <path
            d="M25.6 91.557a.085.085 0 0 1-.085-.086V89.88c0-.048.037-.086.085-.086.048 0 .086.038.086.086v1.592c0 .048-.039.086-.085.086Z"
            fill="#FFFFFE" />
        <path
            d="M27.247 91.557a.085.085 0 0 1-.086-.086V89.88c0-.048.038-.086.086-.086.048 0 .086.038.086.086v1.592a.085.085 0 0 1-.086.086Z"
            fill="#FFFFFE" />
        <path
            d="M28.895 91.557a.085.085 0 0 1-.085-.086V89.88c0-.048.037-.086.085-.086.048 0 .086.038.086.086v1.592a.085.085 0 0 1-.086.086Z"
            fill="#FFFFFE" />
        <path d="M28.919 92.218H4.405v3.09h24.514v-3.09Z" fill="#E98331" fill-opacity=".8" />
        <path
            d="M5.928 94.646a.085.085 0 0 1-.086-.086v-1.592c0-.048.038-.086.086-.086.048 0 .086.038.086.086v1.592a.085.085 0 0 1-.086.086Z"
            fill="#FFFFFE" />
        <path
            d="M7.576 94.646a.085.085 0 0 1-.086-.086v-1.592c0-.048.038-.086.086-.086.048 0 .086.038.086.086v1.592c0 .048-.04.086-.086.086Z"
            fill="#FFFFFE" />
        <path
            d="M9.223 94.646a.085.085 0 0 1-.086-.086v-1.592c0-.048.038-.086.086-.086.047 0 .085.038.085.086v1.592a.085.085 0 0 1-.085.086Z"
            fill="#FFFFFE" />
        <path
            d="M10.87 94.646a.085.085 0 0 1-.085-.086v-1.592c0-.048.037-.086.085-.086.048 0 .086.038.086.086v1.592a.085.085 0 0 1-.085.086Z"
            fill="#FFFFFE" />
        <path
            d="M12.519 94.646a.085.085 0 0 1-.086-.086v-1.592c0-.048.038-.086.086-.086.048 0 .086.038.086.086v1.592a.085.085 0 0 1-.086.086Z"
            fill="#FFFFFE" />
        <path
            d="M14.166 94.646a.085.085 0 0 1-.085-.086v-1.592c0-.048.037-.086.085-.086.048 0 .086.038.086.086v1.592c0 .048-.039.086-.086.086Z"
            fill="#FFFFFE" />
        <path
            d="M15.815 94.646a.085.085 0 0 1-.086-.086v-1.592c0-.048.038-.086.086-.086.048 0 .086.038.086.086v1.592a.087.087 0 0 1-.086.086Z"
            fill="#FFFFFE" />
        <path
            d="M17.462 94.646a.085.085 0 0 1-.086-.086v-1.592c0-.048.038-.086.086-.086.048 0 .086.038.086.086v1.592a.085.085 0 0 1-.086.086Z"
            fill="#FFFFFE" />
        <path
            d="M19.11 94.646a.085.085 0 0 1-.086-.086v-1.592c0-.048.038-.086.086-.086.048 0 .085.038.085.086v1.592a.085.085 0 0 1-.085.086Z"
            fill="#FFFFFE" />
        <path
            d="M20.757 94.646a.085.085 0 0 1-.086-.086v-1.592c0-.048.038-.086.086-.086.048 0 .086.038.086.086v1.592a.085.085 0 0 1-.086.086Z"
            fill="#FFFFFE" />
        <path
            d="M22.406 94.646a.085.085 0 0 1-.086-.086v-1.592c0-.048.038-.086.086-.086.048 0 .085.038.085.086v1.592c0 .048-.039.086-.085.086Z"
            fill="#FFFFFE" />
        <path
            d="M24.052 94.646a.085.085 0 0 1-.086-.086v-1.592c0-.048.038-.086.086-.086.048 0 .086.038.086.086v1.592a.085.085 0 0 1-.086.086Z"
            fill="#FFFFFE" />
        <path
            d="M25.7 94.646a.085.085 0 0 1-.086-.086v-1.592c0-.048.038-.086.086-.086.048 0 .086.038.086.086v1.592a.085.085 0 0 1-.086.086Z"
            fill="#FFFFFE" />
        <path
            d="M27.349 94.646a.085.085 0 0 1-.086-.086v-1.592c0-.048.037-.086.085-.086.048 0 .086.038.086.086v1.592a.085.085 0 0 1-.085.086Z"
            fill="#FFFFFE" />
        <path
            d="M25.967 89.215H7.157a.085.085 0 0 1-.086-.086c0-.048.038-.086.086-.086h18.81a.086.086 0 1 1 0 .172Z"
            fill="#FFFFFE" />
        <path
            d="M27.754 92.305H6.927a.085.085 0 0 1-.086-.085c0-.048.038-.086.086-.086h20.827a.086.086 0 0 1 0 .172Z"
            fill="#FFFFFE" />
        <path
            d="M27.29 95.395H5.22a.085.085 0 0 1-.086-.086c0-.047.038-.085.086-.085h22.07c.049 0 .087.037.087.085 0 .048-.04.086-.086.086Z"
            fill="#FFFFFE" />
        <path
            d="M27.291 98.484H8.141a.085.085 0 0 1-.086-.086c0-.048.038-.085.086-.085h19.15c.048 0 .086.037.086.085 0 .047-.04.086-.086.086Z"
            fill="#FFFFFE" />
        <path d="M16.512 67.83h-1.117v18.617h1.117V67.83Z" fill="#7D5260" />
        <path
            d="m14.944 73.661-.125-.024a18.26 18.26 0 0 1-10.402-5.989A18.275 18.275 0 0 1 .005 56.485L0 56.358l.119.042c7.583 2.677 13.254 9.243 14.8 17.136l.025.125ZM.183 56.605a18.09 18.09 0 0 0 4.365 10.932 18.1 18.1 0 0 0 10.18 5.908C13.168 65.708 7.61 59.273.184 56.605Z"
            fill="#FFD8E4" />
        <path
            d="M20.217 74.03a8.713 8.713 0 0 1-3.178-.601l-.107-.042.07-.09a9.348 9.348 0 0 1 10.318-3.15l.11.036-.066.095a8.693 8.693 0 0 1-7.147 3.751Zm-3.008-.72a8.512 8.512 0 0 0 9.945-3.035 9.178 9.178 0 0 0-9.945 3.035Z"
            fill="#FFD8E4" />
        <path
            d="m15.952 67.557-.065-.073a15.069 15.069 0 0 1-3.601-11.553 15.078 15.078 0 0 1 6.076-10.466l.078-.058.047.085c3.91 7.099 2.918 15.937-2.47 21.99l-.065.075Zm2.431-21.896a14.907 14.907 0 0 0-5.928 10.288 14.906 14.906 0 0 0 3.498 11.347c5.263-5.974 6.236-14.642 2.43-21.635Z"
            fill="#FFD8E4" />
        <path
            d="M20.199 67.723c-1.041 0-2.095-.108-3.149-.334l-.12-.025.066-.104a19.221 19.221 0 0 1 16.957-8.976l.123.005-.046.114a14.933 14.933 0 0 1-13.831 9.32Zm-2.99-.477a14.762 14.762 0 0 0 16.616-8.795 19.045 19.045 0 0 0-16.616 8.795Z"
            fill="#FFD8E4" />
        <path d="M11.194 58.222a2.057 2.057 0 1 1-4.114 0 2.057 2.057 0 1 1 4.114 0Z"
            fill="white" />
        <path d="M11.36 58.222a2.057 2.057 0 1 1-4.114 0 2.057 2.057 0 1 1 4.114 0Z" fill="#E98331"
            fill-opacity=".8" />
        <path d="M14.243 75.936a1.778 1.778 0 1 1-3.556 0 1.778 1.778 0 0 1 3.556 0Z"
            fill="white" />
        <path d="M14.385 75.936a1.778 1.778 0 1 1-3.556 0 1.778 1.778 0 0 1 3.556 0Z" fill="#E98331"
            fill-opacity=".8" />
        <path d="M20.328 78.189a1.778 1.778 0 1 1-2.064-2.896 1.778 1.778 0 0 1 2.064 2.896Z"
            fill="white" />
        <path d="M20.411 78.306a1.778 1.778 0 1 1-2.064-2.896 1.778 1.778 0 0 1 2.064 2.896Z"
            fill="#E98331" fill-opacity=".8" />
        <path d="M27.067 55.898a2.777 2.777 0 1 1-5.555 0 2.777 2.777 0 0 1 5.555 0Z"
            fill="white" />
        <path d="M27.292 55.898a2.777 2.777 0 1 1-5.555 0 2.777 2.777 0 0 1 5.555 0Z" fill="#E98331"
            fill-opacity=".8" />
        <path d="M12.694 63.329a.833.833 0 1 1-1.666 0 .833.833 0 0 1 1.665 0Z" fill="#E98331"
            fill-opacity=".8" />
        <path d="M19.823 69.044a.806.806 0 1 1-1.612 0 .806.806 0 0 1 1.612 0Z" fill="#E98331"
            fill-opacity=".8" />
        <path d="M10.395 73.554a.85.85 0 1 1-1.701-.001.85.85 0 0 1 1.701 0Z" fill="#E98331"
            fill-opacity=".8" />
        <path
            d="M14.381 61.614a13.453 13.453 0 0 1 3.524-13.71 17.55 17.55 0 0 1 1.271 8.8A17.563 17.563 0 0 1 15.985 65a13.398 13.398 0 0 1-1.603-3.386Z"
            fill="#FFD8E4" />
        <path
            d="M24.948 61.779a17.702 17.702 0 0 1 6.768-1.993 13.47 13.47 0 0 1-5.22 4.916 13.476 13.476 0 0 1-7.001 1.552 17.704 17.704 0 0 1 5.453-4.475Z"
            fill="#FFD8E4" />
        <path
            d="M8.601 64.034a21.229 21.229 0 0 1 4.16 7.427 16.591 16.591 0 0 1-7.148-4.846 16.603 16.603 0 0 1-3.754-7.778A21.239 21.239 0 0 1 8.6 64.034Z"
            fill="#FFD8E4" />
        <path
            d="M22.02 71.267a8.08 8.08 0 0 1 3.088-.32 7.48 7.48 0 0 1-5.827 1.778 8.079 8.079 0 0 1 2.74-1.458Z"
            fill="#FFD8E4" />
        <path
            d="m64.044 32.385-4.082 7.026a2.762 2.762 0 0 1-1.394 1.184c-8.337 3.142-16.502 4.113-18.605 4.39-2.18.286-6.007 1.31-6.07.865-.053-.39 1.794-.86 2.22-.971-.554.087-3.522.527-3.585.195-.066-.34 2.602-.894 2.963-.968-.268.033-1.88.31-2.776.29-.649-.013-.875-.309-.121-.552.699-.226 1.97-.4 2.578-.501-.77.1-2.57.299-2.598-.047-.037-.39.928-.496.928-.496l4.308-.713c-.405-.716-2.915-.613-2.828-1.323.07-.566 1.151-.195 2.388.02.705.12 1.922.178 2.821.6.768.359 1.637.86 2.436.576l12.47-4.44a1.885 1.885 0 0 0 1.139-1.124l2.336-6.253 5.472 2.242Z"
            fill="#EF9A9A" />
        <path
            d="M25.15 44.75A59.715 59.715 0 0 1 40.45 16.4a32.032 32.032 0 0 0 8.273 6.272 59.237 59.237 0 0 0-12.677 26.204 48.77 48.77 0 0 0-10.896-4.128Z"
            fill="#7D5260" />
        <path
            d="M80.586 31.337c.209 1.659-3.212 2.558-5.673 1.674a6.047 6.047 0 0 1-3.562-3.444l-3.026-5.83-2.142-4.141a6.592 6.592 0 0 1-6.96.951 6.003 6.003 0 0 1-.915-.513c-3.495-2.306-3.8-7.421-2.468-9.2a3.962 3.962 0 0 1 3.57-1.561 6.429 6.429 0 0 1 7.138-5.22 6.435 6.435 0 0 1 5.622 6.818 8.145 8.145 0 0 1 6.291 5.385c2.402 6.997-5.852 9.481-.246 14.664.253-.491.795-.759 1.34-.669.54.097.958.536 1.031 1.086Z"
            fill="#3E2723" />
        <path
            d="m69.558 24.029-1.234-.29-2.141-4.142a6.592 6.592 0 0 1-6.96.952 6 6 0 0 1-.916-.514 7.81 7.81 0 0 1 .618-8.232l1.74 3.911 5.079-.959.691-1.398c3.718 2.157 5.087 6.85 3.123 10.672Z"
            fill="#7D5260" />
        <path
            d="M63.535 21.611c.58-1.39.648-2.49.648-2.49-2.967 2.899-6.366-2.44-5.257-7.318 2.476 3.004 5.673 2.267 5.673 2.267.649-1.153 1.78-.947 2.052-.506.372.604.413 1.938-1.093 2.64 1.093 2.825 4.722 6.634 4.722 6.634l-8.59 1.532c.9-.891 1.48-1.88 1.846-2.759Z"
            fill="#EF9A9A" />
        <path
            d="M65.01 14.848a.092.092 0 0 1-.086-.126c.272-.694.915-.967.941-.978a.091.091 0 0 1 .121.05.092.092 0 0 1-.05.122c-.006.002-.597.255-.84.874a.093.093 0 0 1-.085.058Z"
            fill="#3E2723" />
        <path d="M67.538 16.518a.552.552 0 1 1-1.104 0 .552.552 0 0 1 1.104 0Z" fill="white" />
        <path
            d="M61.72 14.777c-.081.46-.319.87-.668 1.152a1.912 1.912 0 0 1-1.272.468c-.06 0-.111-.007-.172-.015a1.971 1.971 0 0 1 1.934-1.63c.059.002.12.017.179.025Z"
            fill="#FFFFFE" />
        <path
            d="M61.051 15.93a1.912 1.912 0 0 1-1.272.467c-.06 0-.111-.007-.172-.015a1.987 1.987 0 0 1 .938-1.354c.261.24.44.544.506.901Z"
            fill="#000001" />
        <path d="M60.916 18.227c.478-.252.856-.66 1.068-1.158a.787.787 0 0 1-1.068 1.158Z"
            fill="#B3261E" />
        <path
            d="M59.469 16.617c-.304.338-.491.774-.605 1.135a.379.379 0 0 0 .49.47c.36-.131.773-.305.975-.47l-.86-1.135Z"
            fill="#EF9A9A" />
        <path
            d="M59.409 15.407h-.018a.095.095 0 0 1-.074-.11 1.657 1.657 0 0 1 1.331-1.308c.048-.006.099.025.107.076a.093.093 0 0 1-.075.107c-.59.105-1.067.57-1.18 1.161a.09.09 0 0 1-.091.074Z"
            fill="#3E2723" />
        <path
            d="M71.353 12.038a.503.503 0 0 1-.338-.119c-.111-.1-.14-.26-.076-.426.111-.29.496-.58 1.103-.58.052 0 .093.04.093.092 0 .676-.354.906-.507.975a.699.699 0 0 1-.275.058Zm.593-.938c-.46.028-.753.25-.833.46-.016.044-.048.153.027.22.077.07.245.103.411.027.232-.101.373-.356.395-.707Z"
            fill="#7D5260" />
        <path
            d="M56.514 17.672a.095.095 0 0 1-.088-.063c-.796-2.363-.75-4.468.125-5.773.505-.753 1.27-1.198 2.153-1.257.242-.015.483-.026.72-.036 1.897-.087 3.533-.162 3.836-2.515.18-1.393.725-2.437 1.576-3.015.797-.54 1.848-.665 3.04-.363.05.013.08.063.067.114a.091.091 0 0 1-.114.066c-1.138-.289-2.137-.171-2.888.337-.806.548-1.324 1.545-1.497 2.884-.323 2.508-2.114 2.59-4.011 2.677-.236.012-.476.022-.717.038-.836.054-1.532.46-2.011 1.174-.843 1.257-.88 3.302-.104 5.61a.093.093 0 0 1-.087.122Z"
            fill="#7D5260" />
        <path
            d="M61.509 12.67c-.587 0-1.18-.122-1.76-.393a.093.093 0 0 1-.045-.124.095.095 0 0 1 .124-.045c2.406 1.13 5.072-.448 6.361-2.505.714-1.14 1.89-1.773 3.063-1.644 1.21.129 2.204 1.028 2.727 2.47a.092.092 0 0 1-.056.118.09.09 0 0 1-.119-.056c-.498-1.371-1.436-2.227-2.573-2.348-1.1-.115-2.208.48-2.885 1.56-1.024 1.631-2.893 2.968-4.837 2.968Z"
            fill="#7D5260" />
        <path
            d="M78.218 33.04a.088.088 0 0 1-.043-.011c-4.887-2.598-4.473-6.879-4.072-11.018.159-1.634.308-3.178.119-4.566-.293-2.157-1.49-3.867-3.284-4.692-1.768-.811-3.897-.65-5.553.42a.095.095 0 0 1-.129-.027.094.094 0 0 1 .028-.129c1.71-1.104 3.908-1.272 5.731-.432 1.853.852 3.09 2.615 3.39 4.836.191 1.408.041 2.964-.118 4.61-.395 4.08-.804 8.296 3.974 10.835.045.024.062.08.038.126a.092.092 0 0 1-.081.048Z"
            fill="#7D5260" />
        <path
            d="M59.225 18.339a.473.473 0 0 1-.449-.614c.152-.483.361-.877.623-1.17a.093.093 0 0 1 .132-.006c.038.034.04.094.006.131-.245.273-.442.643-.584 1.1a.287.287 0 0 0 .37.353c.464-.17.792-.326.948-.454a.095.095 0 0 1 .132.012.094.094 0 0 1-.013.132c-.174.143-.511.306-1 .485a.438.438 0 0 1-.165.03Z"
            fill="#3E2723" />
        <path
            d="M97.192 98.367c-2.454 0-4.596-1.54-10.536-4.365.11-1.153-.06-2.528-.38-3.83a15.442 15.442 0 0 0-.67-2.148c-.385-1.034-.832-1.874-1.226-2.306l3.792-4.179.506 1.026c.789 1.621 1.54 3.115 2.774 4.886 1.843 2.885 4.893 4.58 6.826 6.023 3.539 2.64.825 4.893-1.086 4.893Z"
            fill="#EF9A9A" />
        <path
            d="M97.192 98.368c-2.454 0-4.596-1.539-10.537-4.364a8.45 8.45 0 0 0 .023-1.22 13.49 13.49 0 0 0-.401-2.61c2.544-.514 4.239-1.442 5.176-2.722 1.844 2.885 4.894 4.58 6.827 6.023.498.372.877.737 1.145 1.093 1.641 2.142-.59 3.8-2.233 3.8Z"
            fill="#625B71" />
        <path
            d="M97.192 98.368c-2.454 0-4.595-1.54-10.536-4.365.036-.386.044-.796.022-1.22 1.8.93 9.08 4.632 10.352 4.632 1.256 0 3.1-.683 2.395-2.848 1.641 2.143-.59 3.801-2.233 3.801Z"
            fill="#CAC4D0" />
        <path
            d="M94.558 96.276a.092.092 0 0 1-.09-.12 3.52 3.52 0 0 1 3.608-2.534c.05.003.09.047.087.099a.093.093 0 0 1-.094.087h-.006a3.33 3.33 0 0 0-3.417 2.401.092.092 0 0 1-.088.067Z"
            fill="white" />
        <path
            d="M95.51 94.697a.09.09 0 0 1-.036-.008c-2.474-1.066-4.7-3.038-5.958-5.273a.094.094 0 0 1 .036-.128.095.095 0 0 1 .127.036c1.238 2.2 3.431 4.142 5.869 5.192a.094.094 0 0 1-.038.18Z"
            fill="white" />
        <path
            d="M97.121 93.86a.081.081 0 0 1-.041-.01c-2.39-1.21-4.766-3.242-6.205-5.303a.093.093 0 0 1 .151-.106c1.421 2.037 3.773 4.047 6.137 5.245a.093.093 0 0 1-.042.175Z"
            fill="white" />
        <path
            d="M43.709 45.997c-.384 0-.72-.51-.924-1.397-.011-.05.02-.1.07-.112.055-.011.1.02.112.07.177.772.46 1.253.742 1.253h.001c.218-.002.448-.308.616-.824.184-.562.283-1.311.28-2.109-.002-.797-.108-1.546-.296-2.106-.172-.512-.406-.819-.623-.819-.37.003-.725.832-.849 1.972a.094.094 0 0 1-.092.084c-.002 0-.006 0-.01-.002a.092.092 0 0 1-.082-.102c.14-1.296.544-2.136 1.031-2.137h.002c.31 0 .594.335.798.945.194.579.303 1.347.307 2.163.003.816-.099 1.586-.29 2.166-.2.613-.481.95-.792.953.002.002-.001.002-.001.002Z"
            fill="#7D5260" />
        <path
            d="M68.517 91.153H56.7c-4.604-15.029-6.968-33.314-3.39-46.38A40.485 40.485 0 0 0 66.048 46c-.781 4.93-1.041 10.536-.9 16.382.216 8.864 1.346 18.3 2.982 26.808v.023c.126.654.252 1.302.386 1.94Z"
            fill="#EADDFF" />
        <path
            d="M73.396 44.886a40.9 40.9 0 0 1-20.085-.11c1.138-4.188 2.892-7.846 5.384-10.679a13.036 13.036 0 0 1-1.277-3.075 3.712 3.712 0 0 1 .26-2.583c.408-.839.889-1.636 1.44-2.388a5.782 5.782 0 0 1 2.767-2.052 44.922 44.922 0 0 1 5.347-1.502c3.406-.743 6.388 2.283 5.644 5.681a33.701 33.701 0 0 1-2.997 8.292 57.456 57.456 0 0 1 3.517 8.416Z"
            fill="#6750A4" />
        <path
            d="m37.408 51.764-.118-.069a46.783 46.783 0 0 0-14.245-5.52l-.09-.018.018-.09a61.303 61.303 0 0 1 17.48-32.302l.072-.07.064.077a30.347 30.347 0 0 0 11.025 8.234l.118.052-.087.096A57.228 57.228 0 0 0 37.43 51.63l-.021.133Zm-14.234-5.751a47 47 0 0 1 14.095 5.454 57.39 57.39 0 0 1 14.153-29.342 30.553 30.553 0 0 1-10.91-8.156c-8.93 8.718-14.923 19.795-17.338 32.044Z"
            fill="#7D5260" />
        <path d="M68.132 89.191v.023l-7.385-34.75 4.403 7.92c.214 8.864 1.345 18.3 2.981 26.807Z"
            fill="#6750A4" />
        <path
            d="M55.755 69.193a.094.094 0 0 1-.09-.072 53.336 53.336 0 0 1-.642-21.56.095.095 0 0 1 .107-.075c.051.009.085.057.076.107a53.13 53.13 0 0 0 .64 21.485.094.094 0 0 1-.09.115Z"
            fill="#6750A4" />
        <path
            d="M88.796 81.16a30.72 30.72 0 0 1-8.552 9.517A80.512 80.512 0 0 1 59.17 45.845a40.96 40.96 0 0 0 14.225-.96 58.047 58.047 0 0 1 2.959 18.546h1.041l.952 2.797a59.205 59.205 0 0 1 10.449 14.931Z"
            fill="#EADDFF" />
        <path
            d="M69.875 65.962a.091.091 0 0 1-.08-.045 54.17 54.17 0 0 1-6.68-18.322.093.093 0 0 1 .076-.108c.057-.007.1.026.107.076a53.99 53.99 0 0 0 6.658 18.26.093.093 0 0 1-.033.128.11.11 0 0 1-.048.011Z"
            fill="#6750A4" />
        <path
            d="M66.541 90.489a.098.098 0 0 1-.051-.015 33.103 33.103 0 0 1-12.258-14.807.094.094 0 0 1 .05-.123c.048-.02.1.003.122.05a32.915 32.915 0 0 0 12.19 14.724.093.093 0 0 1 .026.13.096.096 0 0 1-.079.04Z"
            fill="#6750A4" />
        <path
            d="M84.943 83.189c-5.021 0-9.921-2.096-13.373-5.787a.093.093 0 0 1 .003-.131.091.091 0 0 1 .132.004c3.716 3.97 9.117 6.077 14.54 5.678a33.302 33.302 0 0 1-11.762-7.865.09.09 0 0 1-.004-.124.092.092 0 0 1 .123-.018 24.245 24.245 0 0 0 12.057 4.022c.052.002.09.047.088.098-.002.05-.045.087-.098.089a24.431 24.431 0 0 1-11.447-3.6 33.12 33.12 0 0 0 11.485 7.373.093.093 0 0 1-.024.179 18.23 18.23 0 0 1-1.72.082Z"
            fill="#6750A4" />
        <path
            d="M61.204 27.413c-.762 0-1.53-.07-2.297-.212a.092.092 0 0 1-.074-.109c.01-.05.06-.083.108-.075 4.188.778 8.4-.637 11.271-3.779a.094.094 0 0 1 .132-.006c.037.034.04.093.006.131a12.355 12.355 0 0 1-9.146 4.05Z"
            fill="#21005D" />
        <path
            d="M67.09 43.412a.093.093 0 0 1-.094-.09 16.905 16.905 0 0 0-9.078-14.457.095.095 0 0 1-.04-.126.097.097 0 0 1 .124-.04 17.092 17.092 0 0 1 9.178 14.615.093.093 0 0 1-.09.096v.002Z"
            fill="#21005D" />
        <path
            d="M61.08 43.729a.09.09 0 0 1-.084-.053 11.06 11.06 0 0 0-5-5.092.092.092 0 0 1-.04-.125.092.092 0 0 1 .123-.042 11.232 11.232 0 0 1 5.083 5.178.092.092 0 0 1-.043.123.082.082 0 0 1-.04.01Z"
            fill="#21005D" />
        <path
            d="M62.738 44.233c-2.88 0-5.762-.326-8.57-.979a.093.093 0 0 1-.07-.112.092.092 0 0 1 .112-.07 37.804 37.804 0 0 0 17.934-.213c.052-.015.1.017.114.067.012.05-.018.1-.067.114a37.946 37.946 0 0 1-9.453 1.194Z"
            fill="#21005D" />
        <path
            d="m69.245 31.739-6.202 5.25a2.756 2.756 0 0 1-1.71.648c-8.908.164-16.925-1.658-19-2.105-2.148-.46-6.097-.781-6.008-1.219.082-.386 1.978-.208 2.416-.17-.55-.105-3.495-.684-3.442-1.019.051-.342 2.75.03 3.115.082-.262-.059-1.875-.34-2.712-.657-.606-.231-.72-.584.071-.56.734.021 1.991.284 2.596.392-.759-.164-2.521-.58-2.432-.915.097-.378 1.041-.156 1.041-.156l4.298.773c-.141-.81-2.54-1.554-2.22-2.195.255-.51 1.15.203 2.243.82.624.35 1.75.813 2.457 1.512.602.594 1.254 1.359 2.1 1.359h13.238c.557 0 1.092-.245 1.45-.677l4.297-5.109 4.404 3.946Z"
            fill="#EF9A9A" />
        <path
            d="m39.974 32.811-.018-.001-1.468-.288a.093.093 0 0 1-.074-.11c.01-.05.055-.08.11-.073l1.469.288c.05.01.083.06.073.11a.093.093 0 0 1-.092.074Z"
            fill="#7D5260" />
        <path
            d="M39.89 33.535c-.004 0-.01 0-.014-.002l-1.504-.226a.094.094 0 0 1-.078-.106.095.095 0 0 1 .106-.078l1.504.226c.05.008.085.056.078.106a.094.094 0 0 1-.092.08Z"
            fill="#7D5260" />
        <path
            d="M39.695 34.386h-.015l-1.222-.21a.093.093 0 0 1-.076-.106c.007-.05.055-.082.107-.076l1.223.208c.05.009.084.057.075.106a.093.093 0 0 1-.092.078Z"
            fill="#7D5260" />
        <path
            d="M65.17 27.493a.092.092 0 0 1-.07-.153l1.785-2.13a.092.092 0 0 1 .132-.011c.039.033.045.09.01.131l-1.785 2.131a.1.1 0 0 1-.072.032Z"
            fill="#21005D" />
        <path
            d="M45.674 37.767c-.05 0-.1-.008-.148-.026-.364-.127-.51-.719-.404-1.626.006-.05.054-.092.104-.08.05.005.087.05.08.103-.092.787.016 1.335.28 1.428.402.146 1.254-.833 1.826-2.46.264-.753.416-1.493.427-2.084.01-.55-.104-.907-.312-.98-.34-.127-.96.538-1.46 1.574a.092.092 0 0 1-.123.043.093.093 0 0 1-.043-.123c.567-1.175 1.234-1.828 1.688-1.669.293.104.448.515.437 1.16-.012.61-.167 1.372-.437 2.141-.47 1.336-1.285 2.599-1.915 2.599Z"
            fill="#7D5260" />
        <path
            d="M72.166 42.509a.093.093 0 0 1-.081-.047 14.935 14.935 0 0 0-5.023-5.308l-.12-.074.117-.08a12.543 12.543 0 0 0 4.31-5.195.094.094 0 0 1 .123-.046.092.092 0 0 1 .047.122 12.715 12.715 0 0 1-4.26 5.191 15.132 15.132 0 0 1 4.969 5.298.094.094 0 0 1-.036.127.105.105 0 0 1-.046.012Z"
            fill="#21005D" />
        <path
            d="M69.878 98.368H55.036s.03-2.09 4.135-3.302c2.052-.61 3.287-1.413 3.994-2.149.706-.743.877-1.413.78-1.763h4.574l.282 1.51 1.077 5.704Z"
            fill="#EF9A9A" />
        <path
            d="M69.878 98.369H55.036s.007-.573.602-1.287c.542-.662 1.568-1.435 3.532-2.016 2.051-.61 3.287-1.413 3.993-2.149 1.332.499 3.853.648 5.637-.252l.833 4.418.245 1.286Z"
            fill="#625B71" />
        <path d="M69.878 98.368H55.036s.007-.573.602-1.287h13.995l.245 1.287Z" fill="#CAC4D0" />
        <path
            d="M58.941 96.957c-.05 0-.09-.039-.093-.088a1.357 1.357 0 0 0-.766-1.15.093.093 0 0 1-.044-.123.093.093 0 0 1 .123-.044c.508.243.842.743.872 1.306a.094.094 0 0 1-.088.098l-.004.001Z"
            fill="white" />
        <path
            d="M58.838 96.5a.096.096 0 0 1-.089-.063.093.093 0 0 1 .058-.117c.508-.172 1.024-.32 1.522-.464 1.725-.497 3.353-.967 4.192-2.28a.094.094 0 0 1 .129-.028.092.092 0 0 1 .028.128c-.877 1.372-2.54 1.852-4.298 2.359a33.62 33.62 0 0 0-1.514.462.093.093 0 0 1-.028.004Z"
            fill="white" />
        <path
            d="M63.585 46.142a44.19 44.19 0 0 1-6.349-.46.093.093 0 0 1-.08-.104.092.092 0 0 1 .105-.08c5.233.763 10.585.57 15.475-.55.054-.01.1.02.112.069.011.05-.02.1-.07.112-2.94.674-6.046 1.013-9.193 1.013Z"
            fill="#21005D" />
        <path
            d="M59.095 33.669h-1.43a.093.093 0 1 1 0-.187h1.43a1.78 1.78 0 0 0 1.378-.643l4.056-4.82a.09.09 0 0 1 .13-.012c.039.033.044.09.011.131l-4.056 4.82c-.37.452-.924.71-1.519.71Z"
            fill="#FFFFF0" />
        <path
            d="M60.2 37.738c-1.311 0-2.663-.04-4.033-.12a.093.093 0 0 1 .006-.185l.006-.001c1.764.103 3.498.144 5.155.11a2.668 2.668 0 0 0 1.652-.624l5.875-4.972a.094.094 0 0 1 .131.012.094.094 0 0 1-.011.131l-5.875 4.972a2.855 2.855 0 0 1-1.768.669 85.37 85.37 0 0 1-1.138.008Z"
            fill="#FFFFF0" />
        <path
            d="M54.3 41.782a.094.094 0 0 1-.032-.007.092.092 0 0 1-.053-.12c.39-1.003.914-2.29 1.497-3.35a.093.093 0 0 1 .127-.037c.045.026.06.081.036.127-.578 1.05-1.098 2.33-1.488 3.327a.094.094 0 0 1-.087.06Z"
            fill="#21005D" />
        <path
            d="M63.623 65.256a.093.093 0 0 1-.088-.063c-2.059-6.042-3.567-13.882-4.12-16.972a.094.094 0 0 1 .074-.109c.054-.007.1.026.108.075.553 3.086 2.06 10.916 4.113 16.945a.093.093 0 0 1-.058.118.058.058 0 0 1-.03.006Z"
            fill="#6750A4" />
        <path
            d="M41.037 35.437c-.005 0-.009 0-.014-.002-3.797-.571-4.64-.817-4.769-1.028a.143.143 0 0 1-.016-.125.09.09 0 0 1 .117-.058c.04.014.066.053.064.095.238.272 3.539.77 4.632.932a.093.093 0 0 1-.014.185Z"
            fill="#FFFFF0" />
        <path
            d="m38.474 34.18-.018-.002c-1.113-.21-3.01-.614-3.223-.951a.161.161 0 0 1-.024-.128.092.092 0 0 1 .114-.065.093.093 0 0 1 .068.098c.073.112.804.43 3.1.863.05.009.082.058.074.109a.094.094 0 0 1-.091.075Z"
            fill="#FFFFF0" />
        <path
            d="m38.331 33.29-.019-.003c-2.197-.453-3.235-.746-3.195-1.18.004-.05.053-.093.101-.083.05.005.089.05.084.1-.032.345 2.048.774 3.047.981.05.01.083.06.072.11a.092.092 0 0 1-.09.075Z"
            fill="#FFFFF0" />
        <path
            d="M38.45 32.483c-.004 0-.009 0-.015-.002-1.244-.193-2.614-.671-2.588-1.023.004-.05.052-.086.1-.086.049.004.087.047.086.096.046.148 1.005.61 2.431.83a.093.093 0 0 1-.014.184Z"
            fill="#FFFFF0" />
        <path
            d="M41.19 31.948a.092.092 0 0 1-.08-.048c-.109-.195-.535-.473-.948-.742-.723-.47-1.404-.916-1.185-1.317a.093.093 0 0 1 .127-.037c.045.026.06.082.036.126-.137.249.592.725 1.123 1.072.452.294.879.573 1.008.809a.092.092 0 0 1-.036.126.092.092 0 0 1-.044.011Z"
            fill="#FFFFF0" />
    </g>
    <defs>
        <clipPath id="clip0_55039_1568">
            <rect fill="white" height="100" width="100" />
        </clipPath>
    </defs>
</svg>
